<?xml version="1.0" encoding="UTF-8"?>
<svg xmlns="http://www.w3.org/2000/svg" version="1.1" viewBox="0 0 1024 1024">
  <g>
    <path fill="#171717" fill-rule="evenodd" d="M798,667.5c0,153-80,248-202,248h-137c-130,0-233-98-233-228V159.5c0-25,15-51,48-51,24,0,41,23,41,51v527c0,85,60,147,147,147h132c76,0,122-59,122-162,0-109-57-171-141-171-73,0-118,37-118,90v106c0,24-19,43-43,43s-43-19-43-43v-234.97c14.17,16.82,28.33,33.65,42.5,50.47,14.5-17.12,29-34.23,43.5-51.35,3.35-3.76,8.41-8.96,15.21-14.32,36.33-28.64,79.6-27.83,103.79-27.83,128,0,222,87,222,249Z"/>
    <path fill="#171717" d="M371,295.11h86v138.92c-14.33,18.25-28.67,36.49-43,54.74-14.33-18.25-28.67-36.49-43-54.74v-138.92Z"/>
    <path fill="#171717" d="M371,284.93h86v-34.4c-.57-16.6-19.8-30.03-43-30.03s-42.43,13.43-43,30.03v34.4Z"/>
  </g>
</svg>
